<?xml version="1.0" standalone="no"?>
<!DOCTYPE svg PUBLIC "-//W3C//DTD SVG 20010904//EN"
 "http://www.w3.org/TR/2001/REC-SVG-20010904/DTD/svg10.dtd">
<svg version="1.0" xmlns="http://www.w3.org/2000/svg"
 width="1024.000000pt" height="1024.000000pt" viewBox="0 0 1024.000000 1024.000000"
 preserveAspectRatio="xMidYMid meet">

<g transform="translate(0.000000,1024.000000) scale(0.100000,-0.100000)"
fill="#000000" stroke="none">
<path d="M2864 8127 c-117 -19 -274 -128 -344 -237 -18 -28 -44 -81 -56 -116
l-24 -65 0 -1453 c0 -1425 0 -1455 20 -1517 57 -181 215 -326 397 -364 104
-22 4424 -22 4528 0 180 38 328 169 398 352 l22 58 3 1415 c2 946 -1 1438 -8
1485 -21 145 -128 299 -261 378 -127 75 80 69 -2399 70 -1225 1 -2250 -2
-2276 -6z m4523 -280 c52 -28 102 -77 126 -121 l22 -41 0 -1435 c0 -1201 -2
-1440 -14 -1468 -7 -18 -17 -31 -21 -30 -7 3 -188 200 -867 945 -161 178 -307
330 -323 338 -43 22 -109 29 -160 15 -48 -12 -47 -11 -469 -443 -79 -81 -145
-146 -146 -144 -1 1 -164 205 -361 452 -198 248 -435 546 -528 663 -102 130
-184 223 -208 240 -32 21 -56 27 -109 30 -116 7 -129 -3 -330 -261 -332 -426
-814 -1034 -1038 -1311 -124 -153 -234 -288 -243 -300 -17 -20 -18 48 -18
1315 0 1449 -2 1387 54 1467 29 42 78 78 133 98 32 11 412 13 2253 11 2097 -2
2217 -3 2247 -20z"/>
<path d="M6000 7413 c-14 -2 -59 -21 -100 -40 -171 -81 -280 -255 -280 -443 0
-134 47 -247 145 -346 149 -151 383 -186 578 -88 77 40 181 149 217 228 111
243 7 527 -237 648 -80 40 -87 42 -191 44 -59 1 -118 0 -132 -3z"/>
<path d="M1830 2860 l0 -390 58 0 57 0 -3 292 c-1 161 1 288 6 283 5 -6 89
-137 188 -292 l179 -283 73 0 72 0 0 390 0 390 -60 0 -60 0 -2 -292 -3 -291
-189 291 -190 292 -63 0 -63 0 0 -390z"/>
<path d="M3915 2860 l0 -390 62 0 61 0 4 198 c3 176 5 200 23 226 34 51 109
70 165 41 56 -29 64 -60 68 -272 l4 -193 59 0 59 0 0 185 c0 230 -9 276 -64
331 -81 82 -230 80 -295 -2 l-21 -27 0 147 0 146 -62 0 -63 0 0 -390z"/>
<path d="M6150 2858 l0 -393 60 3 60 4 0 40 0 40 27 -33 c37 -43 80 -59 160
-59 84 1 144 28 190 89 43 55 53 97 53 211 0 105 -18 161 -68 213 -84 89 -242
97 -323 16 l-39 -39 0 150 0 150 -60 0 -60 0 0 -392z m338 78 c63 -33 92 -92
92 -186 0 -98 -32 -158 -97 -186 -44 -19 -69 -18 -119 7 -61 29 -84 80 -84
185 0 92 18 136 70 172 38 25 97 29 138 8z"/>
<path d="M8050 3230 c-43 -43 -12 -113 50 -113 16 0 39 8 50 18 43 39 11 115
-50 115 -17 0 -39 -9 -50 -20z"/>
<path d="M8290 2860 l0 -390 65 0 65 0 0 390 0 390 -65 0 -65 0 0 -390z"/>
<path d="M3623 3188 l-53 -10 0 -73 0 -73 -42 1 -41 1 0 -44 0 -45 41 -3 40
-3 4 -192 c3 -172 5 -196 23 -227 26 -43 67 -59 158 -59 l67 -1 0 53 0 54 -30
-5 c-45 -7 -75 5 -88 33 -8 16 -12 85 -12 185 l0 160 60 0 60 0 0 40 c0 22 -1
43 -2 47 -2 4 -28 7 -58 8 l-55 1 -3 82 c-2 45 -6 81 -10 81 -4 -1 -31 -6 -59
-11z"/>
<path d="M2787 3040 c-136 -34 -211 -133 -211 -280 0 -135 48 -225 146 -274
72 -36 199 -37 273 -2 102 48 149 132 149 266 0 136 -50 223 -154 269 -54 24
-151 34 -203 21z m161 -117 c50 -37 67 -80 67 -168 0 -105 -22 -150 -88 -183
-77 -39 -165 -11 -203 64 -27 56 -27 186 2 234 33 57 79 83 142 78 32 -3 64
-13 80 -25z"/>
<path d="M5395 3039 c-22 -5 -54 -24 -72 -41 l-32 -31 -3 33 c-3 32 -3 32 -61
34 l-57 1 0 -285 0 -285 60 0 60 0 0 188 c0 205 6 237 55 275 19 15 42 22 72
22 38 0 50 -5 79 -34 l34 -34 1 -198 c1 -110 1 -202 0 -206 0 -5 28 -8 64 -8
l65 0 0 195 c0 218 6 242 62 271 40 21 102 13 134 -17 37 -34 44 -79 44 -271
l0 -178 60 0 60 0 0 210 c0 220 -6 257 -48 303 -35 39 -94 61 -162 60 -74 0
-115 -17 -153 -63 l-26 -31 -17 26 c-35 53 -139 84 -219 64z"/>
<path d="M7075 3043 c-11 -2 -30 -6 -42 -9 -13 -2 -38 -18 -57 -35 l-35 -30
-6 33 c-6 33 -6 33 -63 32 l-57 -2 -3 -281 -2 -281 65 0 65 0 0 185 c0 209 7
241 62 275 63 40 153 10 180 -59 5 -14 9 -109 9 -213 l0 -188 62 0 62 0 -5
222 c-5 244 -9 260 -69 311 -25 21 -113 50 -139 46 -4 -1 -16 -3 -27 -6z"/>
<path d="M7619 3040 c-93 -16 -157 -70 -166 -140 l-6 -43 33 6 c18 4 45 7 61
7 20 0 29 5 29 15 0 9 11 27 25 40 20 20 34 25 78 25 64 0 95 -26 107 -89 8
-46 13 -44 -117 -56 -100 -9 -163 -33 -205 -75 -36 -36 -38 -41 -38 -102 0
-115 58 -168 183 -168 76 0 128 18 170 57 l27 27 0 -25 c0 -38 11 -46 64 -51
l48 -3 -4 220 c-3 212 -4 222 -28 265 -41 74 -147 110 -261 90z m167 -357
c-11 -88 -72 -137 -159 -130 -59 5 -87 29 -87 74 0 46 35 80 91 87 76 10 103
13 133 15 29 1 29 1 22 -46z"/>
<path d="M4540 2820 c0 -188 3 -220 19 -255 35 -76 85 -105 182 -105 71 0 126
20 156 58 l23 27 0 -37 0 -38 58 0 57 0 -2 281 -2 282 -58 0 -58 0 -5 -204
c-6 -225 -9 -237 -69 -265 -41 -20 -104 -14 -133 13 -42 37 -48 72 -48 270 l0
188 -60 0 -60 0 0 -215z"/>
<path d="M8040 2751 l0 -279 60 -4 60 -3 0 283 0 282 -60 0 -60 0 0 -279z"/>
</g>
</svg>
